<?xml version="1.0" encoding="UTF-8"?>
<svg id="Layer_1" data-name="Layer 1" xmlns="http://www.w3.org/2000/svg" viewBox="0 0 86 45">
  <defs>
    <style>
      .cls-1 {
        fill: #14142b;
        stroke-width: 0px;
      }
    </style>
  </defs>
  <path class="cls-1" d="m11.12,4.76c-1.35.42-2.78.59-4.11,1.06-.33.12-.68.23-.98.42-.42.27-.54.67-.52,1.14.06.94.14,1.88.2,2.82.02.34.34.63.69.52.83-.26,1.65-.51,2.48-.77.67-.21.39-1.25-.29-1.04-.83.26-1.65.51-2.48.77l.69.52c-.06-.84-.12-1.68-.18-2.52,0-.12-.07-.4-.04-.5.03-.08.17-.12.26-.15.25-.11.51-.2.77-.28,1.24-.39,2.54-.57,3.78-.96.67-.21.39-1.24-.29-1.04h0Z"/>
  <path class="cls-1" d="m11.23,5.84c1.24-.37,2.48-.71,3.72-1.07.27-.08.54-.16.81-.24.05-.01.37-.11.37-.1-.08,0-.12-.03-.15-.09l.02.08c.03.14.07.27.1.41.25,1.06.4,2.15.44,3.24l.4-.52c-1.12.32-2.3.56-3.37,1.06-.27.12-.34.5-.2.74.16.27.48.32.75.19.94-.43,2.08-.65,3.1-.95.23-.06.41-.28.4-.52-.04-.96-.15-1.92-.34-2.86-.09-.42-.15-.9-.34-1.29-.21-.45-.66-.62-1.14-.52-.48.09-.97.27-1.45.42-.6.17-1.22.35-1.82.52-.54.16-1.09.31-1.62.47-.67.2-.39,1.24.29,1.04h0Z"/>
  <path class="cls-1" d="m8.23,9.93l1.26,8.1c.07.43.49,1.75.19,2.08-.08.09-.66.2-.79.24-.35.11-.7.21-1.05.32-.39.11-.93.15-1.14.55-.21.4-.26,1.07-.23,1.52.07.81.57,1.59,1.43,1.72.54.08,1.09-.12,1.6-.27.63-.17,1.27-.35,1.91-.52,2.59-.68,5.2-1.27,7.88-1.44.28-.01.58-.24.55-.54-.13-1.49-.36-2.96-.68-4.42-.07-.28-.4-.46-.67-.37l-1.92.57c-.51.15-1.25.55-1.77.48l.39.16c-.22-.2-.29-.8-.37-1.07-.11-.35-.2-.7-.3-1.06-.2-.76-.36-1.52-.51-2.29-.24-1.32-.74-2.94.17-4.11.42-.54-.34-1.31-.77-.76-.73.93-.91,1.82-.77,2.96.17,1.42.42,2.83.76,4.21.18.71.38,1.43.61,2.12.15.43.28.84.79.91.55.08,1.26-.29,1.79-.44l2.2-.65-.67-.37c.31,1.36.52,2.73.65,4.13l.55-.54c-2.21.14-4.38.53-6.53,1.06-1.1.27-2.19.56-3.28.86-.46.12-1.11.45-1.55.21-.6-.34-.34-1.19-.2-1.72l-.38.37c.61-.18,1.22-.37,1.84-.55.44-.14,1.03-.22,1.4-.54.33-.29.34-.68.28-1.08-.09-.68-.21-1.35-.31-2.03l-1.26-8.1c-.11-.68-1.16-.4-1.06.29h0Z"/>
  <path class="cls-1" d="m9.9,28.07c.21,2.43,1.24,4.85,2.01,7.15.77,2.3,1.62,4.75,2.36,7.16.2.66,1.26.38,1.06-.29-.71-2.32-1.5-4.61-2.27-6.9-.38-1.13-.76-2.26-1.11-3.39-.39-1.22-.83-2.45-.94-3.72-.06-.68-1.15-.69-1.09,0h0Z"/>
  <path class="cls-1" d="m10.72,28.42c1.1-.7,2.27-1.28,3.49-1.77,1.12-.45,2.32-.96,3.52-1.14,1.33-.19,3.33.7,2.23,2.25-.76,1.07-1.94,1.98-2.87,2.91-.39.4,0,1.02.53.9,3.23-.73,6.21,2.15,5.35,5.36-.92,3.44-5.14,4.14-8.15,4.6-.69.11-.4,1.14.29,1.04,3.71-.56,8.63-1.78,9.06-6.24.37-3.77-3.18-6.64-6.85-5.8l.53.9c.68-.67,1.35-1.34,2.03-2.01.5-.5,1.07-1.02,1.33-1.7.52-1.33-.37-2.67-1.65-3.14-1.54-.57-3.24.11-4.69.64-1.63.6-3.23,1.32-4.7,2.24-.59.37-.04,1.31.55.93h0Z"/>
  <path class="cls-1" d="m22.67,20.4c2.03,6.73,3.9,13.51,5.62,20.32.17.68,1.22.39,1.06-.29-1.73-6.81-3.6-13.58-5.62-20.32-.2-.66-1.25-.38-1.06.29Z"/>
  <path class="cls-1" d="m23.42,20.63c1.46-.63,2.98-1.12,4.45-1.73,1.37-.57,2.81-1.02,4.28-1.27.69-.12.4-1.15-.29-1.04-1.52.25-2.99.73-4.41,1.32-1.52.63-3.07,1.14-4.58,1.78-.64.27-.09,1.21.55.93Z"/>
  <path class="cls-1" d="m31.43,17.2c.17,1.4.57,2.7,1.21,3.96l.33-.79c-.98.14-1.92.37-2.84.74-.66.27-1.57.57-1.94,1.22-.36.65-.05,1.49.12,2.16.29,1.14.58,2.28.87,3.42.09.35.5.47.8.32,1.5-.77,2.97-1.59,4.41-2.47l-.8-.32c.52,1.78,1.05,3.55,1.57,5.32l.38-.66c-1.83.5-3.58,1.19-5.25,2.09-.22.12-.3.38-.25.61.19.85.17,2.98,1.48,2.83.84-.09,1.77-.58,2.57-.84.92-.3,1.84-.61,2.75-.91l-.62-.24c.24.46.48.92.71,1.39.23.47.58.88.21,1.32-.29.35-.88.63-1.27.88-.42.27-.83.55-1.25.81-.8.49-1.62.96-2.46,1.39-.42.22-2.35,1.47-2.72,1.01-.44-.55-1.2.22-.77.76.67.83,1.79.27,2.56-.1,1.4-.66,2.76-1.4,4.08-2.22.66-.41,1.3-.83,1.94-1.28.44-.3.99-.61,1.19-1.12.17-.43.02-.83-.17-1.23-.35-.73-.74-1.44-1.11-2.16-.1-.2-.4-.32-.62-.24-1.32.44-2.64.88-3.96,1.31-.28.09-.59.16-.86.29-.36.03-.45.09-.25.16.16.12.17.03.02-.26-.04-.6-.28-1.24-.41-1.83l-.25.61c1.59-.85,3.25-1.5,4.98-1.97.28-.08.47-.38.38-.66-.52-1.78-1.05-3.55-1.57-5.32-.09-.32-.5-.51-.8-.32-1.44.89-2.9,1.7-4.41,2.47l.8.32c-.19-.74-.37-1.48-.56-2.22-.15-.61-.63-1.65-.55-2.28.07-.7,1.52-1.08,2.03-1.24.69-.22,1.39-.37,2.11-.47.37-.05.47-.52.33-.79-.55-1.08-.91-2.22-1.06-3.42-.09-.68-1.18-.69-1.09,0v-.02Z"/>
  <path class="cls-1" d="m14.75,29.55s.04-.07.07-.1l-.09.11s.08-.09.12-.12l-.11.09c.05-.04.11-.07.17-.1l-.13.06c.07-.03.13-.04.2-.06l-.15.02c.06,0,.12,0,.17,0l-.15-.02c.06,0,.12.02.17.04l-.13-.06c.06.02.1.05.15.09l-.11-.09s.09.08.12.12l-.09-.11c.04.05.07.11.1.17l-.06-.13c.03.06.04.13.06.2l-.02-.14v.17l.02-.14s0,.06-.01.09c-.04.14-.01.29.06.42.07.12.2.22.33.24.28.06.59-.09.67-.37.06-.22.06-.47-.01-.68-.07-.22-.19-.42-.36-.58-.09-.07-.17-.14-.28-.19-.16-.07-.28-.11-.47-.12-.23-.02-.47.04-.68.14-.11.05-.21.13-.3.21-.09.08-.17.19-.23.29-.07.13-.09.27-.06.42.04.12.13.26.25.32.12.06.28.1.42.06.13-.04.26-.12.33-.24h0Z"/>
  <path class="cls-1" d="m17,35.14c.07-.01.15-.02.23-.04,0,0-.11.01-.05,0h.06c.05,0,.1,0,.15,0h.23s.08.01.12,0c0,0-.11-.02-.05,0,.02,0,.05,0,.07.01.07.01.15.03.22.05.04,0,.07.02.11.04.01,0,.04.01.05.02.07.03,0,0-.03-.01.04.04.15.08.21.12.03.02.06.04.09.06.05.03-.04-.03-.04-.03.01.01.04.03.06.04.06.05.11.1.16.16.07.07-.05-.08,0,0,.02.03.04.06.06.09.01.02.03.08.05.09,0,0-.04-.11-.02-.06,0,.01.01.03.01.04.02.06.04.13.05.19,0,.01,0,.04,0,.04,0,0,0-.12,0-.06v.29c.03-.13,0,.09,0,0,0,.03-.01.06-.02.09,0,.04-.01.06-.03.09,0,.01,0,.03-.01.04-.02.07,0-.03.02-.04-.04.06-.07.13-.1.19,0,.01-.02.02-.03.04-.03.05.07-.08.03-.04-.02.02-.04.05-.07.08-.01.01-.03.03-.04.04-.05.05.02-.02.04-.03-.03.01-.06.04-.09.06-.03.01-.07.03-.09.05,0,0,.11-.03.06-.03-.02,0-.05.01-.07.02-.28.08-.47.39-.38.66.09.27.38.46.67.37.8-.22,1.27-1.06,1.22-1.85-.04-.44-.2-.83-.5-1.17-.3-.33-.71-.55-1.14-.66-.49-.13-1.01-.12-1.5-.01-.28.06-.47.4-.38.66.09.29.37.45.67.37h0Z"/>
  <path class="cls-1" d="m36.41,14.67c.49,4.93.97,9.86,1.46,14.79.03.29.23.54.55.54,2.81.01,5.6.42,8.4.63.7.05.7-1.03,0-1.08-2.8-.2-5.59-.61-8.4-.63l.55.54c-.49-4.93-.97-9.86-1.46-14.79-.07-.68-1.16-.69-1.09,0Z"/>
  <path class="cls-1" d="m36.89,15.05c.87-.08,1.73-.27,2.59-.45.31-.06,1.03-.32,1.25-.12.17.17-.04,1.14-.07,1.35-.17,2.02-.24,4.04-.23,6.07,0,.96-.04,1.96.09,2.92.08.59.36,1.01.96,1.16.85.22,1.84.14,2.72.19,1.03.06,2.06.11,3.09.17l-.55-.54c-.12,1.37-.38,2.73-.5,4.11-.06.69,1.03.69,1.09,0,.12-1.37.38-2.73.5-4.11.03-.3-.27-.52-.55-.54-1.03-.06-2.06-.12-3.09-.17-.47-.03-.93-.05-1.39-.08-.52-.03-1.08.1-1.22-.47-.1-.43-.04-.96-.05-1.4-.01-.52-.02-1.04-.02-1.56,0-1.04.01-2.08.07-3.11.05-1.04.11-1.97.19-2.96.05-.59.26-1.41-.23-1.9-.48-.49-1.25-.27-1.82-.17-.95.16-1.88.42-2.84.5-.69.06-.7,1.14,0,1.08h0Z"/>
  <path class="cls-1" d="m45.94,18.66c3.53-.49,7.12-.83,10.67-.97.7-.03.71-1.11,0-1.08-3.66.14-7.34.51-10.97,1.01-.69.09-.4,1.14.29,1.04Z"/>
  <path class="cls-1" d="m45.17,18.34l-.67,2.91c-.07.33.16.69.52.68.71-.01,1.43-.03,2.14-.04.28,0,.63-.11.84.09.12.12.11.7.13.86.2,1.4.37,2.8.5,4.2.25,2.68.39,5.36.4,8.04l.55-.54c-1.01.04-2.02.16-3,.4-.66.17-1.46.37-1.84,1-.38.63-.2,1.45-.11,2.14.15,1.13.4,2.24.74,3.33.07.21.29.42.52.4,2.94-.35,5.87-.78,8.82-1.09,1.02-.11,1.91-.07,2.12-1.24.28-1.49.39-3.02.59-4.52.03-.22-.19-.48-.4-.52-1.26-.22-2.53-.31-3.81-.25l.52.4c-.63-4.37-.95-8.78-1-13.2l-.55.54c.91-.02,1.83-.04,2.74-.06.6-.01,1.3,0,1.79-.42.44-.38.47-.93.47-1.47-.01-.95-.04-1.9-.06-2.85-.01-.69-1.11-.7-1.09,0,.01.61.03,1.23.04,1.84,0,.45.24,1.45-.23,1.75-.35.22-1.21.09-1.6.09l-2.05.05c-.29,0-.55.24-.55.54.04,4.52.39,9.02,1.03,13.48.03.22.31.4.52.4,1.19-.06,2.35,0,3.52.22l-.4-.52c-.15,1.2-.31,2.39-.47,3.6-.03.21-.04.84-.23.99-.13.09-.72.08-.92.1-.63.06-1.26.14-1.89.22-2.31.28-4.62.6-6.93.88l.52.4c-.39-1.26-.9-2.81-.82-4.13.05-.88,1.03-.97,1.76-1.12.72-.15,1.47-.22,2.21-.25.29,0,.55-.24.55-.54-.02-3.27-.21-6.54-.59-9.78-.09-.74-.18-1.49-.28-2.23-.08-.58-.04-1.42-.41-1.89-.34-.42-.85-.39-1.33-.39-.83,0-1.67.04-2.5.05l.52.68.67-2.91c.15-.68-.9-.96-1.06-.29h.04Z"/>
  <path class="cls-1" d="m56.3,24.47c-.47,2.66-.61,5.36-.4,8.06.05.69,1.14.69,1.09,0-.2-2.6-.09-5.21.36-7.77.12-.68-.93-.97-1.06-.29Z"/>
  <path class="cls-1" d="m56.92,24.51c1.62-.58,3.33-.9,4.96-1.47l-.69-.52c-.09.76-.17,1.52-.26,2.29-.04.29.28.54.55.54.32,0,.51-.25.55-.54.09-.76.17-1.52.26-2.29.04-.34-.38-.63-.69-.52-1.62.58-3.33.9-4.96,1.47-.28.1-.47.37-.38.66.07.27.39.47.67.37Z"/>
  <path class="cls-1" d="m59.58,26.76c.91-.34,1.85-.61,2.8-.83l-.69-.52c-.04.49-.09.98-.12,1.47-.02.26-.04.51-.07.77,0,.12-.02.23-.03.35,0,.07-.01.14-.01.21,0,.09,0,0,0,.04,0,.01-.04.13-.04.13-.01-.01.04-.06.05-.07.03-.02.02-.01-.02.01l.04-.02s-.17.02-.05.01c-.23.02-.45.01-.68.02-.5.01-1.01.03-1.51.04-.28,0-.56.24-.55.54.01.29.24.55.55.54.56-.01,1.12-.04,1.68-.05.56-.01,1.23-.02,1.5-.63.12-.26.12-.55.15-.82.02-.27.05-.56.07-.84.05-.57.09-1.14.15-1.71.03-.37-.37-.59-.69-.52-.95.22-1.89.5-2.8.83-.28.1-.47.37-.38.66.07.26.39.48.67.37h-.01Z"/>
  <path class="cls-1" d="m61.42,28.94c-.19,1.09-.36,2.17-.61,3.24-.07.27.09.6.38.66.29.06.6-.09.67-.37.26-1.07.43-2.16.61-3.24.05-.28-.07-.6-.38-.66-.26-.06-.62.08-.67.37Z"/>
  <path class="cls-1" d="m56.6,32.94c1.47.23,2.96.2,4.42-.1.29-.06.46-.4.38-.66-.08-.29-.38-.44-.67-.37-1.25.27-2.57.3-3.84.1-.29-.04-.59.07-.67.37-.07.26.09.62.38.66Z"/>
  <path class="cls-1" d="m61.48,13.41c2,8.5,4.5,16.88,7.51,25.08.24.65,1.3.37,1.06-.29-3.01-8.21-5.52-16.58-7.51-25.08-.16-.68-1.21-.39-1.06.29Z"/>
  <path class="cls-1" d="m62.14,13.65c2.06-.26,4.07-.72,6.03-1.42l-.69-.52c.56,5.48,1.49,10.92,2.81,16.27.17.68,1.22.39,1.06-.29-1.3-5.26-2.22-10.59-2.78-15.98-.03-.32-.33-.65-.69-.52-1.86.66-3.78,1.13-5.74,1.38-.68.09-.7,1.16,0,1.08h0Z"/>
  <path class="cls-1" d="m71.33,9.25c-.2,6.17-.55,12.34-1.05,18.49-.06.69,1.03.69,1.09,0,.5-6.16.85-12.32,1.05-18.49.02-.7-1.07-.69-1.09,0Z"/>
  <path class="cls-1" d="m71.93,9.84c.53.01,1.04.16,1.56.27.39.09.98.04,1.33.19.4.17.31.35.3.76,0,.36-.02.71-.04,1.07-.02.65-.04,1.31-.06,1.96-.09,2.79-.17,5.59-.26,8.38-.17,5.59-.35,11.18-.52,16.76-.02.7,1.07.69,1.09,0,.2-6.24.39-12.48.58-18.72.09-3.09.2-6.18.29-9.27.03-.92.02-1.84-1.09-2-1.04-.15-2.13-.45-3.18-.48-.71-.02-.7,1.06,0,1.08Z"/>
  <path class="cls-1" d="m69.58,39.14c1.72.48,3.45.81,5.24.81.71,0,.71-1.08,0-1.08-.78,0-1.57-.04-2.34-.17-.88-.14-1.75-.37-2.62-.6-.68-.19-.97.85-.29,1.04h0Z"/>
  <path class="cls-1" d="m77.93,24.21c.11,5.05.23,10.1.34,15.15.01.69,1.11.7,1.09,0-.11-5.05-.23-10.1-.34-15.15-.01-.69-1.11-.7-1.09,0Z"/>
  <path class="cls-1" d="m78.58,24.63c1.9-.46,3.84-.79,5.8-.88l-.52-.68c-.27,1.45-.38,2.91-.31,4.38l.55-.54c-1.08-.08-2.37-.12-3.21.68-.66.62-.98,1.68-.44,2.47.57.85,1.63.84,2.54.65.26-.06.5-.14.76-.2.39-.08.47-.13.57.27.18.79.23,1.65.34,2.45l.38-.66c-1.11.27-2.23.52-3.34.83-.76.22-.91.86-.86,1.62.14,2,2.8,1.21,4.09,1.09l-.55-.54c0,1.16.02,2.31.03,3.47,0,.69,1.1.7,1.09,0,0-1.16-.02-2.31-.03-3.47,0-.27-.25-.57-.55-.54-.77.07-1.54.14-2.32.21-.84.07-.75-.47-.55-1.1l-.38.37c1.21-.3,2.43-.6,3.64-.91.31-.08.42-.38.38-.66-.09-.61-.17-1.23-.26-1.84-.06-.4-.06-.83-.27-1.18-.37-.63-1.09-.6-1.73-.45-.58.14-2.43.74-2.15-.52.26-1.19,1.9-1.03,2.81-.96.28.02.56-.27.55-.54-.07-1.37.01-2.73.27-4.09.06-.32-.15-.7-.52-.68-2.05.09-4.09.44-6.09.92-.68.17-.39,1.21.29,1.04Z"/>
  <path class="cls-1" d="m78.77,39.98c2.03-.24,4.08-.15,6.11-.4.29-.04.55-.22.55-.54,0-.27-.25-.58-.55-.54-2.03.24-4.08.15-6.11.4-.29.04-.55.22-.55.54,0,.27.25.58.55.54Z"/>
  <path class="cls-1" d="m19.81,11.44c-.15,1.87,1.65,3.26,3.35,3.58,1.7.32,3.6-.17,4.89-1.4.51-.48-.26-1.24-.77-.76-.97.92-2.39,1.35-3.72,1.14-1.33-.21-2.76-1.12-2.65-2.56.05-.69-1.04-.69-1.09,0Z"/>
  <path class="cls-1" d="m34.9,9.21c.76-1.05,2.39-1.3,3.58-1.47,1.41-.2,3-.09,4.14.86.53.45,1.31-.32.77-.76-1.42-1.19-3.26-1.4-5.05-1.15-1.6.22-3.4.62-4.39,1.99-.41.57.54,1.11.95.55h0Z"/>
  <path class="cls-1" d="m47.96,12.6c1.02,1.14,2.87.75,4.2.59,1.79-.22,3.57-.52,5.33-.94.68-.17.39-1.2-.29-1.04-1.55.37-3.12.66-4.7.86-.73.09-1.46.19-2.19.22-.58.02-1.18,0-1.58-.45-.47-.52-1.24.24-.77.76h0Z"/>
  <path class="cls-1" d="m61.41,38.38c1.44-.96,3.49-.75,4.68.51.48.51,1.25-.25.77-.76-1.5-1.6-4.17-1.91-6-.68-.24.17-.35.47-.2.74.14.24.5.36.75.19h0Z"/>
  <path class="cls-1" d="m40.3,37.57c-.93.83-1.7,2.01-1.65,3.29.04,1.18.75,2.29,1.9,2.68.66.22.95-.81.29-1.04-.73-.24-1.11-1.06-1.1-1.78.02-.95.64-1.78,1.33-2.38.22-.19.2-.57,0-.76-.22-.22-.55-.19-.77,0h0Z"/>
  <path class="cls-1" d="m21.49,44.97c1.22-.45,2.34-1.14,3.27-2.06.2-.2.22-.57,0-.76-.22-.19-.55-.22-.77,0-.2.2-.42.4-.64.58-.04.03-.07.05-.1.08-.07.06.06-.04,0,0-.05.04-.11.08-.17.12-.12.09-.25.17-.38.26-.24.16-.5.29-.75.42-.13.06-.26.13-.39.19-.03.01-.07.03-.09.04.05-.02.03-.01-.01,0-.08.03-.16.06-.24.09-.27.1-.48.37-.38.66.09.26.39.48.67.37Z"/>
  <path class="cls-1" d="m4.31,32.8c-.15,2.57.17,5.67,2.73,7.05.62.33,1.17-.6.55-.93-2.2-1.19-2.32-3.95-2.19-6.12.04-.69-1.05-.69-1.09,0Z"/>
  <path class="cls-1" d="m.71,11.54c1.81,1.27,2.76,3.65,2.32,5.8-.14.68.91.97,1.06.29.55-2.66-.58-5.45-2.82-7.02-.24-.17-.6-.04-.75.19-.16.27-.04.57.2.74Z"/>
  <path class="cls-1" d="m3.06,2.5c.71.68,1.73.93,2.7.82,1.11-.13,2.11-.67,3.06-1.22.6-.35.06-1.28-.55-.93-.78.45-1.6.93-2.51,1.06-.68.1-1.44-.02-1.94-.5-.5-.48-1.28.28-.77.76h0Z"/>
  <path class="cls-1" d="m29.44,3.79c1.8-1.91,4.58-2.76,7.15-2.16.68.16.98-.88.29-1.04-2.94-.68-6.16.26-8.22,2.45-.48.51.29,1.27.77.76Z"/>
  <path class="cls-1" d="m49.77,2.79c.25,1.86,2.23,2.62,3.87,2.85,1.85.27,3.75.35,5.48-.46.63-.29.08-1.23-.55-.93-1.39.65-3,.57-4.48.37-1.32-.17-3.05-.58-3.26-2.13-.04-.29-.42-.45-.67-.37-.31.08-.42.37-.38.66h0Z"/>
  <path class="cls-1" d="m71.14,3.46c1.25-.71,2.76-.68,4.16-.55,1.4.12,2.9.49,3.66,1.73.36.59,1.31.05.95-.55-.93-1.5-2.62-2.06-4.3-2.24-1.68-.18-3.51-.19-5.02.68-.61.35-.06,1.28.55.93h0Z"/>
  <path class="cls-1" d="m79.52,14.9c.67.75,1.75.93,2.7.76,1.06-.19,1.95-.88,2.77-1.52.23-.18.19-.58,0-.76-.23-.23-.54-.18-.77,0-.65.5-1.34,1.03-2.16,1.22-.63.14-1.33.04-1.78-.45-.2-.22-.58-.19-.77,0-.22.22-.2.55,0,.76h0Z"/>
  <path class="cls-1" d="m75.85,43.05c.67-.37,1.4-.79,2.15-.88.6-.08,1.23.05,1.65.49.48.51,1.25-.26.77-.76-.6-.63-1.53-.89-2.4-.81-.99.1-1.87.56-2.72,1.04-.61.34-.07,1.27.55.93h0Z"/>
</svg>