<svg width="31" height="27" viewBox="0 0 31 27" fill="none" xmlns="http://www.w3.org/2000/svg">
<g id="RL Iconography">
<path id="Vector" d="M8.73827 9.98171H7.23975V5.74414H12.306V6.99754H8.73827V9.98171Z" fill="#14142B"/>
<path id="Vector_2" d="M24.7095 10.0934H23.211V6.99754H19.6877V5.74414H24.7095V10.0934Z" fill="#14142B"/>
<path id="Vector_3" d="M12.306 19.7348H7.23975V15.3486H8.73827V18.4814H12.306V19.7348Z" fill="#14142B"/>
<path id="Vector_4" d="M16.5764 8.16602H15.0779V17.6568H16.5764V8.16602Z" fill="#14142B"/>
<path id="Vector_5" d="M13.8872 9.46973H12.3887V16.3548H13.8872V9.46973Z" fill="#14142B"/>
<path id="Vector_6" d="M19.4009 9.46973H17.9023V16.3548H19.4009V9.46973Z" fill="#14142B"/>
<path id="Vector_7" d="M22.1189 11.2861H20.6204V14.5367H22.1189V11.2861Z" fill="#14142B"/>
<path id="Vector_8" d="M11.1326 11.2861H9.63403V14.5367H11.1326V11.2861Z" fill="#14142B"/>
<path id="Vector_9" d="M20.3035 23.393L16.0725 20.7959L16.9592 19.7853L18.805 20.9184V18.4818H23.2111V15.6094H24.7096V19.7352H20.3035V23.393Z" fill="#14142B"/>
</g>
</svg>
