<?xml version="1.0" encoding="utf-8"?>
<!-- Generator: Adobe Illustrator 28.0.0, SVG Export Plug-In . SVG Version: 6.00 Build 0)  -->
<svg version="1.1" id="Layer_1" xmlns="http://www.w3.org/2000/svg" xmlns:xlink="http://www.w3.org/1999/xlink" x="0px" y="0px"
	 viewBox="0 0 66.7 35.6" style="enable-background:new 0 0 66.7 35.6;" xml:space="preserve">
<style type="text/css">
	.st0{fill:#14142B;}
</style>
<g>
	<path class="st0" d="M9.8,8.1C9.1,7.9,8.4,8.2,7.9,8.7c-0.4,0.5-0.8,1.1-1,1.8c0,0.1-0.1,0.1-0.1,0.2c0,0,0,0.1,0,0.1
		c0,0,0,0.1,0,0.1c0,0.1,0,0.1-0.1,0.2c-0.1,0.3-0.3,0.6-0.4,0.9c-0.2,0.5-0.4,1.6,0.4,1.6c0,0,0.1,0,0.1,0l0,0c0,0,0,0,0.1,0
		c0,0,0,0,0,0c0.2-0.1,0.3-0.1,0.5-0.2c0.2-0.1,0.3-0.2,0.5-0.2c0.3,0,0.7,0,1,0.2c0.3,0.2,0.5,0.6,1,0.6c0.2,0,0.4-0.1,0.5-0.2
		c0.3-0.3,0.4-0.8,0.4-1.3c0-0.5,0-1,0-1.5C10.8,9.9,10.8,8.5,9.8,8.1z M9.8,13.1C9.8,13.1,9.8,13.1,9.8,13.1
		C9.8,13.1,9.8,13.1,9.8,13.1z M9.9,13C9.9,13,9.9,13,9.9,13C9.9,13,9.9,13,9.9,13z M9.9,13C9.9,13,9.9,13,9.9,13
		C9.8,13,9.9,13,9.9,13z M9.9,13C9.9,13,9.9,13,9.9,13C9.9,13,9.9,13,9.9,13C9.9,13.1,9.9,13,9.9,13z M10,12.2c0,0.2,0,0.3-0.1,0.5
		c0,0.1,0,0.2-0.1,0.2c0,0,0,0.1,0,0.1l0,0c0,0,0,0,0,0c0,0,0,0,0,0c-0.3-0.2-0.5-0.5-0.9-0.6c-0.4-0.2-0.8-0.2-1.3-0.1
		c-0.2,0-0.4,0.1-0.6,0.2c-0.1,0-0.1,0.1-0.2,0.1c0.1-0.2,0.1-0.4,0.2-0.6c0.1-0.3,0.3-0.7,0.5-1.1c0.2-0.5,0.4-1,0.8-1.4
		c0.2-0.3,0.7-0.8,1.2-0.6c0.2,0.1,0.3,0.3,0.3,0.4c0,0.1,0.1,0.3,0.1,0.4c0-0.1,0,0,0,0.1c0,0.4,0.1,0.7,0.1,1.1
		C10,11.3,10,11.7,10,12.2z"/>
	<path class="st0" d="M21.2,16.7c0.7,0.1,1.5-0.1,2.1-0.3c1.3-0.3,2.6-0.7,3.8-1.3c0.5-0.3,1-0.6,1.4-1.1c0.4-0.5,0.6-1.2,0.5-1.9
		c-0.1-0.6-0.2-1.3-0.5-1.8c-0.4-0.5-1.1-0.7-1.7-0.6c-0.8,0.1-1.5,0.5-2.1,1c0.8-2.3,1.2-4.7,0.8-7.1c-0.1-0.6-0.2-1.4-0.7-1.9
		c-0.2-0.3-0.6-0.4-0.9-0.4c-0.4,0-0.7,0.1-1,0.2c-0.7,0.3-1,0.8-1.3,1.4c-0.3,0.7-0.4,1.4-0.6,2.1c-0.4,1.7-0.7,3.4-1,5.2
		c-0.6,0.2-1.2,0.5-1.7,0.9c0.9-2.6,1.3-5.3,0.6-8c-0.2-0.7-0.5-1.5-1.4-1.4c-0.8,0-1.5,0.3-2,0.9C15,3.2,14.9,4,14.7,4.7
		c-0.2,0.9-0.4,1.7-0.6,2.6c-0.3,1.2-0.5,2.5-0.7,3.7C13.2,10,13,9,12.7,8c-0.4-1.2-1-2.5-2.2-2.9C10.2,5,9.9,4.9,9.6,4.9
		c0,0-0.1,0-0.1,0l0,0c0,0,0,0,0,0c0,0-0.1,0-0.1,0C8.1,5,7,5.8,6.2,6.9C5.3,8,4.9,9.2,4.4,10.5c-0.6,1.8-1,3.6-1.1,5.5
		c0,0.7,0,1.6,0.2,2.3c0.2,0.6,0.6,1.1,1.2,1.3c0.8,0.2,1.5-0.3,1.9-1C7,18,7.1,17.3,7.3,16.7c0.2-0.5,0.5-1.2,1.1-1.3
		c0.4,0,0.6,0.3,0.8,0.6c0.2,0.3,0.4,0.6,0.7,0.9c0.5,0.6,1,1.1,1.6,1.4c0.6,0.3,1.4,0.3,1.9-0.1c0.5-0.3,0.7-0.8,0.8-1.3
		c0.2,0.1,0.4,0.2,0.5,0.2c0.7,0.1,1.5-0.1,2.1-0.3c1.1-0.2,2.2-0.6,3.2-1C20.2,16.3,20.7,16.6,21.2,16.7z M21.5,6.3
		c0.2-0.7,0.3-1.5,0.5-2.2c0.1-0.5,0.3-1.1,0.6-1.5c0.2-0.2,0.4-0.3,0.7-0.4c0.2-0.1,0.6-0.2,0.8-0.1c0.2,0.1,0.3,0.4,0.3,0.5
		c0.1,0.3,0.2,0.6,0.2,1c0.2,1.3,0.2,2.7,0,4c-0.2,1.5-0.7,3-1.4,4.4c-0.1,0.2-0.1,0.4,0.1,0.5c0.2,0.1,0.4,0.1,0.5,0
		c0.7-0.7,1.4-1.5,2.3-1.8c0.4-0.2,1-0.3,1.4-0.1c0.4,0.2,0.5,0.8,0.5,1.1c0.1,0.5,0.1,1.1-0.2,1.5c-0.2,0.4-0.6,0.7-1,1
		c-1,0.6-2.1,0.9-3.2,1.2c-0.6,0.2-1.3,0.3-2,0.4c-0.4,0.1-1,0-1.2-0.4c0.5-0.3,1-0.6,1.4-1.1c0.4-0.5,0.6-1.2,0.5-1.9
		c-0.1-0.6-0.2-1.3-0.5-1.8c-0.3-0.4-0.8-0.6-1.3-0.6C21,8.9,21.2,7.6,21.5,6.3z M13.3,17.1c-0.2,0.5-0.7,0.7-1.2,0.6
		c-0.6-0.2-1.1-0.7-1.5-1.1C10.1,16,9.8,15.4,9.3,15c-0.6-0.5-1.5-0.4-2,0.2c-0.4,0.4-0.7,1-0.8,1.6c-0.1,0.5-0.3,1.2-0.6,1.6
		c-0.2,0.2-0.4,0.4-0.7,0.4c-0.2,0-0.4-0.1-0.5-0.2c-0.3-0.4-0.4-1-0.4-1.5C4,15.4,4.4,13.7,4.8,12c0.4-1.3,0.8-2.7,1.4-3.9
		c0.5-1,1.3-1.9,2.4-2.3c0.2-0.1,0.5-0.1,0.8-0.1c0,0,0,0,0,0c0.5,0,1,0.2,1.4,0.5c0.4,0.4,0.6,0.9,0.8,1.4c0.2,0.7,0.4,1.3,0.6,2
		c0.2,0.8,0.4,1.7,0.5,2.6c0.2,0.9,0.3,1.7,0.4,2.6c0.1,0.4,0.1,0.9,0.2,1.3C13.4,16.4,13.4,16.8,13.3,17.1z M15.4,16.3
		c-0.5,0.1-1.1,0-1.2-0.5c0-0.1,0-0.1-0.1-0.2c-0.1-0.7-0.2-1.4-0.3-2.2c0,0,0,0,0-0.1l0,0c0.2-1.6,0.5-3.3,0.8-4.9
		c0.2-0.8,0.3-1.6,0.5-2.4c0.2-0.7,0.3-1.5,0.6-2.2c0.2-0.6,0.5-1.1,1.1-1.3c0.2-0.1,0.7-0.2,0.9-0.1C17.9,2.7,18,3,18,3.2
		c0.4,1.4,0.4,2.9,0.3,4.4c-0.2,1.7-0.7,3.3-1.4,4.8c-0.1,0.2-0.1,0.4,0.1,0.5c0.2,0.1,0.4,0.1,0.5,0c0.7-0.7,1.4-1.5,2.3-1.8
		c0.1,0,0.2-0.1,0.3-0.1c0,0,0,0,0,0c0.1,0,0.2,0,0.3-0.1c0.2,0,0.5,0,0.7,0.1c0.4,0.2,0.5,0.8,0.5,1.1c0.1,0.5,0.1,1.1-0.2,1.5
		c-0.2,0.4-0.6,0.7-1,1c-1,0.6-2.1,0.9-3.2,1.2C16.7,16,16.1,16.2,15.4,16.3z"/>
	<path class="st0" d="M33.3,12.2C33.3,12.2,33.3,12.2,33.3,12.2C33.3,12.2,33.3,12.2,33.3,12.2z"/>
	<path class="st0" d="M35.8,14.5c1.5,0.1,3.3,0,4.5-1c-0.1,0.2-0.2,0.4-0.2,0.5c-0.2,0.7-0.1,1.4,0.5,1.9c0.7,0.5,1.5,0.5,2.3,0.3
		c1.5-0.4,3-1.2,4.3-2c1.1-0.7,2.4-1.6,2.7-3C50,10.6,50,10,49.7,9.5c-0.1-0.3-0.3-0.5-0.6-0.6c0.3-0.3,0.6-0.6,0.9-1
		c0.4-0.5,0.6-1.2,0.8-1.8c0.2-0.7,0.4-1.4,0.4-2.1c0-0.6-0.2-1.2-0.6-1.7c-0.4-0.4-0.9-0.7-1.4-0.8c-1.3-0.3-2.7,0-3.8,0.5
		c-0.5,0.2-0.9,0.5-1.3,0.8c0-0.2,0-0.4,0-0.7c-0.1-0.4-0.3-0.7-0.6-0.9c-0.3-0.2-0.8-0.2-1.1-0.2c0,0,0,0,0,0l0,0
		c-0.9,0.2-1.9,0.4-2.8,0.3c-0.8,0-1.6-0.3-2.4-0.2c-0.8,0.1-1.6,0.5-1.9,1.3c-0.3,0.8,0.1,1.6,0.8,1.9c0.5,0.2,1.1,0.2,1.7,0.1
		c-0.4,0.5-0.6,1.2-0.8,1.8c-0.4,1.3-0.8,2.7-1.2,4c-0.1,0.3-0.2,0.6-0.2,0.9c0,0,0,0.1,0,0.1c0,0-0.1,0-0.1,0c-0.1,0-0.1,0-0.2,0
		c0,0-0.1,0-0.1,0c0,0-0.1,0-0.1,0c-0.6-0.1-1.3-0.3-1.9,0c-0.8,0.4-0.7,1.5-0.2,2.1C33.5,14.5,34.8,14.4,35.8,14.5z M40.6,9.8
		c-0.4-0.1-0.8-0.1-1.1,0c-0.2,0.1-0.4,0.2-0.5,0.3c0.1-0.9,0.3-1.8,0.6-2.7c0.2-0.6,0.4-1.2,0.8-1.7c0.1-0.2,0.3-0.4,0.5-0.5
		c0.2-0.1,0.5-0.1,0.7-0.1c0.1,0,0.2,0,0.3,0c-0.7,1-1.3,2.1-1.4,3.2C40.4,8.9,40.4,9.4,40.6,9.8z M41.4,10.9
		c0.2,0.1,0.4,0.3,0.6,0.3c-0.3,0.2-0.5,0.5-0.8,0.7C41.4,11.6,41.5,11.2,41.4,10.9z M47.7,2.3c0.8-0.1,2-0.1,2.5,0.8
		c0.3,0.4,0.3,1,0.2,1.5c-0.1,0.6-0.2,1.2-0.4,1.7c-0.3,1-0.9,2-2,2.5c-0.5,0.2-1.3,0.2-1.7-0.2c-0.4-0.4-0.4-1-0.2-1.5
		c0.3-1.1,1.1-2,2.2-2.3c0.5-0.1,0.3-0.9-0.2-0.8l0,0c-1.2,0.3-2.1,1.3-2.6,2.4c-0.2,0.6-0.4,1.2-0.2,1.9c0.2,0.7,0.7,1.2,1.3,1.3
		c0.6,0.2,1.1,0.1,1.6-0.1c0,0,0.1,0,0.1,0c0.1,0,0.2,0,0.3,0c0.1,0,0.1,0,0.2,0.1c0,0,0,0,0,0c0,0,0.1,0.1,0.1,0.1
		c0,0,0.1,0.2,0.1,0.2c0.1,0.1,0.1,0.3,0.1,0.5c0,0.2,0,0.4,0,0.5c-0.1,0.5-0.3,0.8-0.6,1.2c-0.4,0.5-1,0.8-1.5,1.2
		c-1.1,0.8-2.3,1.5-3.5,1.9c-0.6,0.2-1.3,0.5-1.9,0.3c-0.5-0.1-0.9-0.5-0.8-1c0.1-0.6,0.5-1.2,0.8-1.7c0.4-0.6,1-1.1,1.6-1.3
		c0.6,0,1.3-0.1,1.9-0.3c0.2-0.1,0.4-0.2,0.6-0.3c0.4-0.3,0-0.9-0.4-0.7c-1.2,0.7-3.7,0.8-4.1-1c-0.1-0.6,0-1.2,0.2-1.7
		c0.2-0.5,0.5-1.1,0.8-1.6c0.6-0.9,1.4-1.8,2.3-2.5C45.5,2.8,46.6,2.4,47.7,2.3z M35.4,11.5C35.4,11.5,35.4,11.5,35.4,11.5
		C35.4,11.5,35.4,11.5,35.4,11.5C35.4,11.5,35.4,11.5,35.4,11.5C35.4,11.5,35.4,11.5,35.4,11.5z M33.2,12.4
		C33.2,12.4,33.2,12.4,33.2,12.4c0-0.1,0-0.1,0.1-0.1c0,0,0.1-0.1,0,0c0,0,0,0,0,0c0,0,0,0,0,0c0,0,0,0,0.1,0c0,0,0.1,0,0.1,0
		c0,0,0.1,0,0.1,0c0,0,0,0,0,0c0,0,0,0,0,0c0.6-0.1,1,0.1,1.5,0.1c0.2,0,0.5,0,0.7-0.1c0.4-0.2,0.4-0.7,0.4-1
		c0.3-1.4,0.7-2.7,1.2-4.1c0.3-1,0.6-2.2,1.6-2.8c0.2-0.1,0.2-0.3,0.2-0.5c-0.1-0.2-0.3-0.3-0.5-0.2c0,0-0.1,0-0.1,0l0,0
		c0,0,0,0,0,0c-0.7,0.1-1.4,0.4-2.1,0.3c-0.3,0-0.5-0.1-0.6-0.4c-0.1-0.2-0.1-0.5,0.1-0.7c0.3-0.5,1-0.7,1.6-0.6
		c0.7,0,1.4,0.2,2.1,0.2c0.9,0,1.9-0.2,2.8-0.4c0,0,0,0,0,0c0.1,0,0.2,0,0.3,0c0,0,0.1,0,0.1,0c0,0,0,0,0.1,0c0,0,0,0,0,0
		c0,0,0,0,0,0c0,0,0.1,0.1,0.1,0.1c-0.1-0.1,0,0.1,0.1,0.1c0,0,0,0.1,0,0c0,0,0,0.1,0,0.1c0,0.1,0,0.1,0,0.2c0,0,0,0,0,0.1
		c0,0,0,0.1,0,0.1c0,0.1,0,0.1,0,0.2c0,0,0,0.1,0,0.1c0-0.1,0,0,0,0c0,0.1,0,0.2-0.1,0.2c-0.1,0.2-0.2,0.5-0.4,0.7
		c-0.2,0.2-0.4,0.3-0.6,0.4c-0.4,0.1-0.9,0-1.3,0.1c-0.6,0.1-1,0.6-1.3,1.1C39.3,6,39,6.6,38.8,7.2c-0.5,1.3-0.7,2.7-0.8,4.1
		c0,0.4,0.6,0.5,0.7,0.2c0.2-0.4,0.5-0.7,1-0.9c0.4-0.1,0.8-0.1,0.9,0.3c0.1,0.7-0.3,1.4-0.8,1.9c-1,0.9-2.7,1-4,0.9
		c-0.4,0-0.8,0-1.1-0.1c-0.5-0.1-1.1-0.2-1.4-0.6c-0.1-0.1-0.1-0.3-0.1-0.5C33.2,12.5,33.2,12.5,33.2,12.4
		C33.2,12.5,33.2,12.4,33.2,12.4z"/>
	<path class="st0" d="M60.3,26.7c-0.9-0.3-1.9-0.1-2.8,0.2c1.7-2.1,2.9-4.6,3.2-7.3c0.1-0.7,0.2-1.7-0.5-2.2
		c-0.4-0.2-0.9-0.3-1.4-0.3c-0.4,0-0.8,0.1-1.2,0.4c-0.7,0.5-1.1,1.2-1.5,1.9c-0.5,0.8-1,1.6-1.4,2.4c-1,1.7-1.9,3.4-2.7,5.1
		c-0.2-0.2-0.5-0.4-0.8-0.5c-0.9-0.3-1.9-0.1-2.8,0.2c1.7-2.1,2.9-4.6,3.2-7.3c0.1-0.7,0.2-1.7-0.5-2.2c-0.4-0.2-0.9-0.3-1.4-0.3
		c-0.4,0-0.8,0.1-1.2,0.4c-0.7,0.5-1.1,1.2-1.5,1.9c-0.3,0.5-0.7,1.1-1,1.7c-0.1-0.2-0.2-0.4-0.4-0.6C45,19.4,44,19.2,43.1,19
		c-0.9-0.2-1.9-0.3-2.9-0.3c-1,0-1.9,0.2-2.9,0.4c-0.9,0.3-1.8,0.6-2.6,1.1c-0.8,0.5-1.9,1.7-1,2.6c0.3,0.3,0.8,0.4,1.2,0.5
		c0,0.1-0.1,0.1-0.2,0.2c-0.5,0.6-0.9,1.4-1.2,2.1c-0.7,1.5-1,3.2-1.2,4.8c-0.1,0.5-0.1,0.9-0.2,1.4c-0.1,0.5-0.1,1-0.1,1.5
		c0,0.2,0.3,0.3,0.5,0.3c1.5-0.5,3-1.1,4.5-1.5c1.4-0.4,2.9-0.6,4.2-1.4c0.3-0.2,0.5-0.3,0.7-0.5c0.1,0.4,0.4,0.8,0.7,1
		c0.6,0.4,1.3,0.4,2,0.4c1.5,0.1,3,0.2,4.4,0c0.6-0.1,1.2-0.3,1.7-0.6c0.1-0.1,0.2-0.2,0.3-0.2c0.1,0.3,0.4,0.6,0.6,0.7
		c0.6,0.4,1.3,0.4,2,0.4c1.5,0.1,3,0.2,4.4,0c0.6-0.1,1.2-0.3,1.7-0.6c0.6-0.3,0.9-0.9,1.1-1.5c0.2-0.6,0.3-1.3,0.2-1.9
		C61.4,27.4,61,26.9,60.3,26.7z M42.7,26.9c-0.3-0.1-0.6-0.2-0.9-0.2c-0.7-0.1-1.5,0.1-2.1,0.4c-0.8,0.3-1.5,0.8-2.1,1.2
		c-0.3,0.2-0.6,0.4-0.8,0.6c0.2-0.6,0.4-1.1,0.6-1.7c0.1-0.2,0.2-0.2,0.4-0.3c0.3-0.1,0.5-0.2,0.8-0.2c0.5-0.1,1-0.2,1.6-0.3
		c0.4-0.1,0.9-0.1,1.3-0.3c0.4-0.2,0.9-0.4,1.1-0.8c0.2-0.5-0.1-1-0.5-1.1c-0.4-0.1-1-0.1-1.4,0c-0.8,0.1-1.6,0.3-2.4,0.5
		c0.1-0.1,0.1-0.2,0.2-0.3c0.2-0.3,0.5-0.8,0.9-0.8c0.5-0.1,1-0.1,1.5-0.1c0.5,0,1.1-0.1,1.6-0.2c0.9-0.2,1.8-0.4,2.6-1
		c0,0,0.1-0.1,0.1-0.1C44.3,23.8,43.5,25.3,42.7,26.9z M40.9,30.2c-1.2,0.7-2.5,0.9-3.8,1.2c-1.4,0.4-2.8,0.9-4.1,1.4
		c0-0.2,0-0.5,0.1-0.7c0-0.4,0.1-0.7,0.1-1.1c0.1-0.8,0.2-1.5,0.4-2.3c0.3-1.5,0.8-2.9,1.6-4.1c0.2-0.3,0.5-0.7,0.8-1
		c0.3,0,0.5,0,0.8-0.1c0.2,0.1,0.6-0.1,0.5-0.5c0-0.1,0-0.2-0.1-0.3c0-0.2-0.2-0.3-0.4-0.3c-0.4,0-0.7,0.1-1,0.3c-0.1,0-0.3,0-0.4,0
		c-0.3-0.1-0.8-0.1-1-0.3c-0.6-0.5,0.7-1.3,1.1-1.5c1.4-0.8,3.2-1.2,4.8-1.3c0.8,0,1.7,0,2.5,0.2c0.4,0.1,0.8,0.2,1.3,0.3
		c0.4,0.1,0.8,0.3,1,0.5c0.1,0.1,0.2,0.2,0.2,0.3c0,0.2-0.2,0.3-0.3,0.4c-0.3,0.3-0.6,0.5-1,0.6c-0.7,0.4-1.6,0.5-2.4,0.6
		c-0.5,0.1-1,0.1-1.6,0.1c-0.5,0-1,0-1.4,0.3c-0.4,0.3-0.7,0.7-0.9,1.1c-0.3,0.4-0.5,0.8-0.6,1.3c-0.1,0.3,0.3,0.6,0.6,0.4
		c0.8-0.4,1.7-0.7,2.6-0.8c0.5-0.1,0.9-0.1,1.4-0.1c0.1,0,0.2,0,0.2,0.1c0,0,0,0-0.1,0.1c-0.1,0.1-0.2,0.1-0.2,0.2
		c-0.7,0.4-1.6,0.5-2.4,0.6c-0.5,0.1-1,0.2-1.5,0.4c-0.2,0.1-0.5,0.1-0.6,0.2c-0.2,0.1-0.3,0.3-0.4,0.5c-0.5,1-0.8,2.1-1.1,3.1
		c-0.1,0.4,0.4,0.7,0.7,0.4c0.9-1,2-1.7,3.1-2.3c0.6-0.3,1.2-0.6,1.8-0.7c0.3,0,0.6,0,0.9,0c0.1,0,0.3,0.1,0.4,0.1
		c0.1,0,0.3,0.1,0.4,0.2c0,0,0,0.2-0.1,0.3c0,0.1-0.1,0.2-0.1,0.4c-0.1,0.2-0.2,0.5-0.4,0.7C41.8,29.6,41.4,29.9,40.9,30.2z
		 M50.8,30.3c-0.4,0.3-0.8,0.4-1.3,0.5c-1.2,0.3-2.4,0.2-3.6,0.1c-0.7-0.1-1.4-0.1-2-0.2c-0.4-0.1-1.1-0.3-1-0.8
		c0-0.1,0-0.2-0.1-0.3c0,0,0,0,0,0c0.2-0.2,0.3-0.5,0.5-0.8c0.1-0.3,0.3-0.7,0.2-1c0-0.2-0.1-0.3-0.2-0.4c0.7-1.5,1.5-3,2.3-4.5
		c0.4-0.8,0.9-1.5,1.3-2.2c0.4-0.7,0.8-1.4,1.3-2.1c0.2-0.3,0.4-0.5,0.7-0.7c0.3-0.2,0.6-0.2,1-0.2c0.3,0,0.7,0.1,0.8,0.4
		c0.1,0.3,0.1,0.7,0,1c-0.1,1.5-0.6,2.9-1.2,4.3c-0.8,1.5-1.8,2.9-2.9,4.2c-0.3,0.3,0.1,0.8,0.5,0.6c0,0,0.1,0,0.1,0l0,0
		c0,0,0,0,0,0c1-0.5,2-1,3.1-1c0.4,0,1,0.1,1.2,0.6c0.2,0.4,0.1,1,0,1.5C51.4,29.5,51.2,30,50.8,30.3z M60.7,29.4
		c-0.1,0.5-0.3,0.9-0.7,1.3c-0.4,0.3-0.8,0.4-1.3,0.5c-1.2,0.3-2.4,0.2-3.6,0.1c-0.7-0.1-1.4-0.1-2-0.2c-0.4-0.1-1.1-0.3-1-0.8
		c0-0.1,0-0.1,0-0.2c0.1-0.1,0.1-0.3,0.2-0.4c0.2-0.6,0.3-1.2,0.2-1.8c0,0,0,0,0,0l0,0c0.7-1.6,1.5-3.1,2.4-4.6
		c0.4-0.8,0.9-1.5,1.3-2.2c0.4-0.7,0.8-1.4,1.3-2.1c0.2-0.3,0.4-0.5,0.7-0.7c0.3-0.2,0.6-0.2,1-0.2c0.3,0,0.7,0.1,0.8,0.4
		c0.1,0.3,0.1,0.7,0,1c-0.1,1.5-0.6,2.9-1.2,4.3c-0.8,1.5-1.8,2.9-2.9,4.2c-0.3,0.3,0.1,0.8,0.5,0.6c0,0,0.1,0,0.1,0l0,0
		c0,0,0,0,0,0c1-0.5,2-1,3.1-1c0.4,0,1,0.1,1.2,0.6C60.9,28.4,60.8,28.9,60.7,29.4z"/>
	<path class="st0" d="M32.8,26.1c0.2-0.8,0.3-1.6,0.5-2.4c0.2-1.4,0.3-3-0.5-4.2c-0.6-0.9-1.6-1.7-2.7-1.7c-1.2-0.1-2.3,0.8-2.8,1.8
		c-0.6,1.2-0.7,2.5-0.7,3.8c0,0.3,0,0.6,0.1,0.8c-0.5-0.3-1-0.5-1.6-0.3c-0.7,0.2-1.1,0.8-1.4,1.5c0,0,0,0.1-0.1,0.1
		c-0.2-1.2-0.1-2.4-0.2-3.6c-0.1-1.2-0.4-2.6-1.3-3.5c-0.4-0.4-1-0.7-1.6-0.7c-0.5,0-1,0.2-1.3,0.6C18.4,18.9,18,20,17.7,21
		c-0.4,1.5-0.2,3,0.2,4.5c0.4,1.5,0.9,3.1,1.1,4.6c0.2,1.2,0,2.6,0.5,3.8c0.6,1.4,2.3,1.8,3.6,1.2c0.5-0.2,0.9-0.7,1.1-1.2
		c0.3-0.4,0.5-0.9,0.6-1.4c0.3,0.2,0.6,0.4,1,0.3c0.3,0,0.6-0.1,0.8-0.3c0,0.3,0,0.7,0,1c0.1,0.9,0.4,1.8,1.4,1.9
		c1.5,0.2,2.4-1.2,2.9-2.4c0.2-0.7,0.4-1.3,0.7-2c0.3-0.8,0.5-1.6,0.7-2.4C32.5,27.7,32.6,26.9,32.8,26.1z M31.8,27
		c-0.1,0.7-0.3,1.5-0.5,2.2c-0.2,0.7-0.4,1.4-0.6,2.1c-0.2,0.6-0.4,1.2-0.6,1.8c-0.2,0.5-0.6,1.1-1.1,1.4c-0.2,0.1-0.5,0.2-0.7,0.1
		c-0.1,0-0.2-0.1-0.4-0.1c-0.1,0,0,0,0,0c0,0-0.1-0.1-0.1-0.1c-0.1-0.1,0,0,0,0c0,0,0-0.1-0.1-0.1c-0.1-0.1,0-0.1-0.1-0.2
		c0-0.1-0.1-0.2-0.1-0.3c-0.1-0.3-0.1-0.7-0.1-1.1c0-0.4,0.1-0.8,0.1-1.1c0-0.1,0-0.2,0-0.3c0,0,0-0.1,0-0.1h0c0-0.5-0.8-0.5-0.8,0
		c0,0.3-0.2,0.6-0.4,0.7c-0.1,0.1-0.2,0.1-0.3,0.1c0,0-0.1,0-0.1,0c0,0,0,0-0.1,0c0,0,0,0,0,0c0,0,0,0,0,0c-0.2,0-0.3,0-0.5-0.1
		c-0.2-0.1-0.3-0.3-0.4-0.6c0,0,0-0.1,0-0.1l0,0c-0.1-0.2-0.3-0.3-0.5-0.3c-0.2,0.1-0.3,0.3-0.3,0.5c0,0,0,0.2,0,0.3
		c0,0.1,0,0.2,0,0.3c-0.1,0.3-0.1,0.5-0.2,0.8c-0.2,0.5-0.5,1-0.9,1.3c-0.4,0.4-1,0.5-1.5,0.4s-1-0.4-1.2-0.9
		c-0.5-0.9-0.3-2.2-0.4-3.2c-0.2-1.5-0.6-2.9-1-4.3c-0.4-1.4-0.7-2.8-0.5-4.3c0.1-0.9,0.4-1.8,0.9-2.6c0.1-0.2,0.2-0.3,0.4-0.5
		c0.1-0.1,0.1-0.1,0.2-0.2c0,0,0.1-0.1,0.1-0.1c0,0,0.1,0,0.1,0c0.1,0,0.2-0.1,0.2-0.1c0,0,0.1,0,0.1,0c0.1,0,0.1,0,0.2,0
		c0.1,0-0.1,0,0,0c0,0,0,0,0.1,0c0.1,0,0.1,0,0.2,0c0.1,0,0.2,0.1,0.3,0.2c0.9,0.6,1.3,1.7,1.4,2.7c0.1,1.2,0.1,2.3,0.1,3.5
		c0.1,1.3,0.6,2.6,0.2,3.8c-0.1,0.4-0.2,0.7-0.4,1c-0.3,0.4,0.4,0.8,0.7,0.4l0,0c0.4-0.7,0.6-1.4,0.6-2.2c0,0,0-0.1,0-0.1
		c0-0.1,0.1-0.2,0-0.3c-0.1-0.6,0.2-1.2,0.4-1.7c0.2-0.4,0.5-0.9,1-1.1c0.5-0.2,0.9,0.1,1.2,0.4c0.2,0.2,0.3,0.4,0.3,0.6
		c0.1,0.7,0.2,1.5,0.3,2.2c0,0.4,0.1,0.8,0.1,1.2c0,0.5,0.8,0.5,0.8,0c0-0.8-0.1-1.7-0.2-2.5c0-0.1,0.1-0.2,0-0.3
		c0-0.3-0.1-0.5-0.2-0.8c-0.2-1.5-0.4-2.9-0.1-4.4c0.2-1,0.7-2.2,1.7-2.5c0.9-0.3,1.8,0.1,2.4,0.7c0.9,0.9,1,2,1,3.2
		c0,0.7-0.2,1.5-0.3,2.2C32.1,25.5,32,26.2,31.8,27z"/>
	<path class="st0" d="M13.5,24.1c-1.1-1.1-2.9-1.2-4.3-0.9c0,0,0,0,0,0h0c0,0,0,0,0,0c-0.9,0.2-1.7,0.6-2.2,1.4
		c-0.4,0.6-0.6,1.4-0.5,2.1c0.1,0.7,0.4,1.5,0.8,2.2c0.5,0.7,1.2,1.1,2.1,1.3c1.7,0.3,3.6,0,4.5-1.6C14.5,27.3,14.6,25.2,13.5,24.1z
		 M13.3,27.7c-0.2,0.6-0.6,1.2-1.2,1.5c-0.6,0.3-1.4,0.4-2.1,0.4c-0.6,0-1.4-0.2-1.9-0.7c-0.4-0.4-0.7-1.1-0.9-1.7
		c-0.2-0.6-0.2-1.4,0.1-2c0.4-0.7,1.2-1.1,1.9-1.3c0,0,0,0,0,0c1-0.2,2.3-0.3,3.2,0.3C13.6,25,13.7,26.6,13.3,27.7z"/>
	<path class="st0" d="M9.6,25.8c0,0-0.1-0.1-0.1-0.1c0,0-0.1-0.1-0.1-0.1c-0.1,0-0.1,0-0.2,0c-0.1,0-0.1,0-0.1,0l-0.1,0.1
		c-0.1,0.1-0.1,0.1-0.1,0.2l0,0.1c0,0.1,0,0.1,0.1,0.2L9,26.4c0,0,0.1,0.1,0.1,0.1c0,0,0.1,0.1,0.1,0.1c0.1,0,0.1,0,0.2,0
		c0.1,0,0.1,0,0.1,0l0.1-0.1c0.1-0.1,0.1-0.1,0.1-0.2l0-0.1c0-0.1,0-0.1-0.1-0.2L9.6,25.8z"/>
	<path class="st0" d="M10.7,25.9c0,0,0.1,0.1,0.1,0.1c0,0,0.1,0,0.1,0c0.1,0,0.1,0,0.2,0l0.1,0c0.1,0,0.1-0.1,0.1-0.1l0-0.1
		c0-0.1,0-0.1,0-0.2l-0.1-0.2c0-0.1,0-0.1-0.1-0.1c0,0-0.1-0.1-0.1-0.1c0,0-0.1,0-0.1,0c-0.1,0-0.1,0-0.2,0l-0.1,0
		c-0.1,0-0.1,0.1-0.1,0.1l0,0.1c0,0.1,0,0.1,0,0.2l0.1,0.2C10.7,25.8,10.7,25.9,10.7,25.9z"/>
	<path class="st0" d="M11.8,26.8c-0.2,0-0.4,0.2-0.4,0.4c0,0,0,0,0,0c0,0,0,0.1,0,0.1c0,0,0,0.1-0.1,0.1c0,0-0.1,0.1-0.1,0.1
		c0,0,0,0-0.1,0c0,0-0.1,0-0.1,0c0,0-0.1,0-0.1,0c-0.1,0-0.1,0-0.2,0l0,0c-0.2-0.1-0.4,0-0.5,0.1c-0.1,0.2-0.1,0.4,0.1,0.5h0
		c0.4,0.2,0.9,0.2,1.2,0c0.4-0.2,0.6-0.6,0.6-1C12.2,27,12,26.8,11.8,26.8z M10.8,27.6L10.8,27.6C10.8,27.6,10.8,27.6,10.8,27.6z"/>
	<path class="st0" d="M7.2,29.3c-0.1-0.1-0.2-0.1-0.3,0l-0.1,0c-0.1,0-0.1,0.1-0.1,0.1c-0.2,0.2-0.3,0.5-0.5,0.7c0,0,0,0.1,0,0.1
		c0,0.1,0,0.1,0,0.2c0,0.1,0.1,0.2,0.2,0.2c0.1,0.1,0.2,0.1,0.3,0l0.1,0c0.1,0,0.1-0.1,0.1-0.1c0.2-0.2,0.3-0.5,0.5-0.7
		c0,0,0-0.1,0-0.1c0-0.1,0-0.1,0-0.2C7.4,29.5,7.3,29.4,7.2,29.3z"/>
	<path class="st0" d="M10.1,30.8c-0.1-0.1-0.2-0.1-0.3-0.1c-0.2,0-0.4,0.2-0.4,0.4c0,0.4,0.1,0.8,0.1,1.2c0,0.1,0,0.2,0.1,0.3
		c0.1,0.1,0.2,0.1,0.3,0.1c0.2,0,0.4-0.2,0.4-0.4c0-0.4-0.1-0.8-0.1-1.2C10.2,30.9,10.2,30.8,10.1,30.8z"/>
	<path class="st0" d="M16.1,30.2c-0.7-0.4-1.3-0.7-2.1-0.9c-0.2-0.1-0.4,0.1-0.5,0.3c0,0.2,0.1,0.4,0.3,0.5v0
		c0.2,0.1,0.3,0.1,0.5,0.2c0.1,0,0.2,0.1,0.2,0.1c0,0,0.1,0,0.1,0.1c-0.1,0,0,0,0.1,0c0.3,0.1,0.6,0.3,0.9,0.5
		c0.2,0.1,0.4,0,0.5-0.1C16.4,30.5,16.3,30.3,16.1,30.2z"/>
	<path class="st0" d="M6.2,27.1c0.1-0.1,0.1-0.2,0.1-0.3s0-0.2-0.1-0.3c-0.1-0.1-0.2-0.1-0.3-0.1l0,0c-0.4,0.1-0.9,0.1-1.3,0.3
		c-0.2,0.1-0.3,0.3-0.3,0.5c0.1,0.2,0.3,0.3,0.5,0.3c0.3-0.1,0.7-0.2,1-0.2c0,0,0,0,0.1,0C6,27.2,6.1,27.1,6.2,27.1z"/>
	<path class="st0" d="M6.7,23.9c0.1,0,0.2,0.1,0.3,0c0.1,0,0.2-0.1,0.2-0.2c0.1-0.2,0.1-0.4-0.1-0.5C6.7,23,6.3,22.8,6,22.7
		c-0.1,0-0.2-0.1-0.3,0c-0.1,0-0.2,0.1-0.2,0.2c-0.1,0.2-0.1,0.4,0.1,0.5v0C5.9,23.5,6.3,23.7,6.7,23.9z"/>
	<path class="st0" d="M10.4,22.3v-1c0-0.2-0.2-0.4-0.4-0.4c-0.2,0-0.4,0.2-0.4,0.4v1c0,0.2,0.2,0.4,0.4,0.4
		C10.2,22.7,10.4,22.5,10.4,22.3z"/>
	<path class="st0" d="M12.8,23.2c0.3-0.3,0.5-0.5,0.8-0.8c0.1-0.1,0.1-0.2,0.1-0.3c0-0.1,0-0.2-0.1-0.3s-0.2-0.1-0.3-0.1
		c-0.1,0-0.2,0-0.3,0.1c-0.3,0.3-0.5,0.5-0.8,0.8c-0.1,0.1-0.1,0.2-0.1,0.3s0,0.2,0.1,0.3c0.1,0.1,0.2,0.1,0.3,0.1
		C12.6,23.3,12.7,23.3,12.8,23.2z"/>
	<path class="st0" d="M16.2,26.6c-0.4,0-0.8-0.1-1.2,0c-0.1,0-0.2,0-0.3,0.1c-0.1,0.1-0.1,0.2-0.1,0.3c0,0.2,0.2,0.4,0.4,0.4
		c0.4,0,0.8,0,1.2,0c0.1,0,0.2-0.1,0.3-0.1s0.1-0.2,0.1-0.3c0-0.1,0-0.2-0.1-0.3C16.4,26.7,16.3,26.7,16.2,26.6z"/>
	<path class="st0" d="M14.3,24.7c0,0-0.1,0.1-0.1,0.1c0,0.1,0,0.2,0,0.3c0.1,0.1,0.1,0.2,0.2,0.2c0.1,0,0.2,0,0.3,0
		c0.1-0.1,0.3-0.2,0.4-0.3c0.1,0,0.2-0.1,0.3-0.1c0.1,0,0.2-0.1,0.2-0.2c0-0.1,0.1-0.2,0-0.3c-0.1-0.2-0.3-0.3-0.5-0.3h0
		c-0.3,0.1-0.7,0.2-0.9,0.4C14.3,24.6,14.3,24.6,14.3,24.7z"/>
	<path class="st0" d="M29.7,9.3c0.1,0,0.2,0,0.3-0.1c0.1,0.6,0.3,1.1,0.3,1.7c0.1,1.6-0.3,3.2-1.3,4.4c-1,1.2-2.5,2.1-4.2,2
		c-0.5,0-0.5,0.8,0,0.8h0c1.8,0.1,3.5-0.8,4.6-2.1c1.3-1.5,1.7-3.5,1.5-5.5c-0.1-0.5-0.1-1-0.3-1.5c0,0,0,0,0-0.1
		c0.4-0.3,0.8-0.6,1-1c1.1-1.9,0.1-4.1-1.4-5.5c-0.2-0.1-0.4-0.2-0.6,0c-0.1,0.1-0.2,0.4,0,0.6c1.1,0.9,2,2.3,1.6,3.8
		c-0.1,0.5-0.5,1-0.9,1.4c-0.1-0.2-0.1-0.3-0.2-0.5C29.9,7.2,29.5,7,29,7c-0.5,0-0.9,0.3-1,0.7c-0.1,0.4,0,0.9,0.4,1.2
		C28.7,9.2,29.2,9.3,29.7,9.3z M29.2,7.8c0.3,0.1,0.5,0.4,0.6,0.7c-0.4,0.1-0.9,0.1-1-0.4C28.8,7.8,29,7.7,29.2,7.8z"/>
	<path class="st0" d="M66.1,24.4c-0.1-0.9-0.3-2.1-0.9-2.8c0.3-0.9,0.5-1.8,0.5-2.8c0-1.3-0.4-2.7-1.1-3.8c-0.7-1-1.7-1.9-2.9-2.3
		c-2.6-0.9-5.2,0.6-6.8,2.6c-0.2,0.3-0.4,0.5-0.6,0.8c-0.1,0.2,0,0.4,0.1,0.5c0.2,0.1,0.4,0,0.5-0.1l0,0c1.2-1.7,3.2-3.4,5.4-3.2
		c2.1,0.1,3.8,1.8,4.4,3.8c0.3,1.1,0.3,2.4,0,3.5c0,0.1-0.1,0.3-0.1,0.4c-0.1-0.1-0.2-0.1-0.3-0.2c-0.6-0.2-1.3-0.2-1.8,0.2
		c-0.5,0.4-0.6,1.2-0.5,1.8c0.1,0.6,0.5,1.3,1.2,1.3c0.7,0,1.1-0.8,1.4-1.3c0.1-0.1,0.1-0.2,0.2-0.4c0.2,0.5,0.3,1,0.4,1.4
		c0.3,1.3,0.4,2.7,0.1,4c-0.3,1-0.9,1.9-1.7,2.5c-0.2,0.1-0.4,0.2-0.7,0.3c-0.5,0.1-0.3,0.9,0.2,0.8c1.2-0.4,2.2-1.3,2.7-2.5
		C66.4,27.5,66.3,25.9,66.1,24.4z M64.1,22.3c-0.1,0.3-0.3,0.5-0.5,0.8c-0.1,0.1-0.2,0.4-0.4,0.3c-0.2-0.1-0.3-0.3-0.3-0.4
		c-0.1-0.2-0.1-0.5-0.1-0.7c0-0.4,0.3-0.8,0.7-0.8c0.3,0,0.5,0.1,0.7,0.3C64.2,21.9,64.2,22.1,64.1,22.3z"/>
	<path class="st0" d="M1.3,16.3c0.2-1.5,0.5-2.9,0.9-4.3C2.5,10.6,3,9.2,3.6,7.8c0.3-0.7,0.6-1.3,1-1.9c0.4-0.6,0.7-1.2,1.3-1.6
		c0.7-0.5,1.5-0.6,2.3-0.7C9.1,3.5,10,3.5,11,3.6c0.5,0,0.5-0.8,0-0.8h0c-0.9-0.1-1.8-0.1-2.6,0C7.5,2.9,6.7,3,5.9,3.3
		C5.2,3.7,4.7,4.3,4.3,4.9c-0.4,0.6-0.8,1.3-1.1,2c-1.4,2.9-2.1,6-2.6,9.1c-0.1,0.9-0.2,1.9,0,2.8c0.2,0.8,0.6,1.5,1.3,2
		C2.3,21,2.7,20.3,2.2,20C1.1,19.2,1.1,17.6,1.3,16.3z"/>
	<polygon class="st0" points="47.4,1.1 47.4,1.1 47.4,1.1 	"/>
	<path class="st0" d="M47.4,1.1C48.8,1,50.6,0.8,51.7,2c0.5,0.5,0.7,1.2,0.8,1.9c0.1,0.7,0.1,1.4,0,2c-0.1,0.8-0.4,1.5-0.9,2.2
		c-0.3,0.4,0.4,0.8,0.7,0.4c0.9-1.3,1.2-3,1-4.5c-0.1-0.8-0.4-1.6-0.9-2.3c-0.5-0.6-1.2-1.1-2-1.3c-1-0.3-2.1-0.2-3.1-0.1
		c-0.2,0-0.4,0.2-0.4,0.4C47,0.9,47.2,1.1,47.4,1.1z"/>
	<path class="st0" d="M54.9,5.8c0,1.5-0.4,3-1.2,4.4c-0.4,0.8-1,1.4-1.6,2c-0.4,0.3,0.2,0.9,0.6,0.6c2.5-2.2,3.6-5.9,2.8-9.2
		c-0.3-1-0.7-2-1.4-2.8c-0.3-0.4-0.9,0.2-0.6,0.6C54.5,2.5,54.9,4.3,54.9,5.8z"/>
</g>
</svg>
